<?xml version="1.0" encoding="utf-8"?>
<!-- Generator: Adobe Illustrator 28.0.0, SVG Export Plug-In . SVG Version: 6.00 Build 0)  -->
<svg version="1.1" xmlns="http://www.w3.org/2000/svg" xmlns:xlink="http://www.w3.org/1999/xlink" x="0px" y="0px"
	 viewBox="0 0 432 333.28" style="enable-background:new 0 0 432 333.28;" xml:space="preserve">
<style type="text/css">
	.st0{fill:#D25F21;}
	.st1{fill:#EEB276;}
	.st2{display:none;}
	.st3{display:inline;fill:none;stroke:#EA9054;stroke-width:4;stroke-miterlimit:10;}
	.st4{display:inline;}
	.st5{fill:none;stroke:#EA9054;stroke-width:4;stroke-miterlimit:10;}
	.st6{fill:none;stroke:#EA9054;stroke-width:3;stroke-miterlimit:10;}
	.st7{fill:none;stroke:#EA9054;stroke-width:2;stroke-miterlimit:10;}
	.st8{fill:none;stroke:#EA9054;stroke-width:1.5;stroke-miterlimit:10;}
	.st9{fill:none;stroke:#EA9054;stroke-miterlimit:10;}
	.st10{fill:none;stroke:#EA9054;stroke-width:0.75;stroke-miterlimit:10;}
	.st11{fill:none;stroke:#EA9054;stroke-width:0.5;stroke-miterlimit:10;}
	.st12{fill:#FBF5E5;}
</style>
<g id="Artwork">
	<path class="st0" d="M341.67,221.45H96.02c-1.35-96.01,74.71-122.2,122.82-122.2C263.83,99.25,341.67,127.57,341.67,221.45z"/>
	<g>
		<polygon class="st0" points="219.38,99.25 212.85,12.34 224.82,12.34 220.79,99.25 		"/>
		<polygon class="st0" points="232.35,101.14 233.35,12.94 245.27,13.96 233.76,101.26 		"/>
		<polygon class="st0" points="205.7,101.14 204.7,12.94 192.78,13.96 204.29,101.26 		"/>
		<polygon class="st0" points="244.87,102.93 255.17,15.33 266.92,17.6 246.26,103.2 		"/>
		<polygon class="st0" points="192.78,102.93 182.47,15.33 170.73,17.6 191.39,103.2 		"/>
		<polygon class="st0" points="259.67,107.03 278.07,20.76 289.55,24.11 261.03,107.42 		"/>
		<polygon class="st0" points="176.87,107.05 158.47,20.78 146.99,24.13 175.51,107.44 		"/>
		<polygon class="st0" points="271.35,112.79 302.17,30.15 313.03,35.14 272.64,113.39 		"/>
		<polygon class="st0" points="163.97,112.94 133.91,30.01 122.99,34.91 162.68,113.52 		"/>
		<polygon class="st0" points="286.23,121.72 326.55,43.27 336.76,49.51 287.44,122.46 		"/>
		<polygon class="st0" points="149.56,121.72 109.24,43.27 99.04,49.51 148.36,122.46 		"/>
		<polygon class="st0" points="298.15,132.1 347.9,59.26 357.25,66.72 299.26,132.98 		"/>
		<polygon class="st0" points="136.8,132.1 87.05,59.26 77.7,66.72 135.69,132.98 		"/>
		<polygon class="st0" points="311.49,144.12 368.87,77.12 377.35,85.55 312.5,145.11 		"/>
		<polygon class="st0" points="122.99,146.39 65.62,79.39 57.13,87.82 121.99,147.38 		"/>
		<polygon class="st0" points="318.72,154.1 389.35,101.26 395.79,111.35 319.48,155.29 		"/>
		<polygon class="st0" points="116.23,156.03 45.6,103.2 39.16,113.28 115.47,157.23 		"/>
		<polygon class="st0" points="326.64,168.87 405.04,128.46 409.72,139.47 327.19,170.17 		"/>
		<polygon class="st0" points="107.25,170.62 28.84,130.21 24.16,141.22 106.7,171.92 		"/>
		<polygon class="st0" points="332.85,187.02 416.1,157.87 419.2,169.42 333.21,188.39 		"/>
		<polygon class="st0" points="101.52,187.02 18.27,157.87 15.16,169.42 101.15,188.39 		"/>
		<polygon class="st0" points="336.76,203.55 423.65,188.39 424.83,200.29 336.9,204.96 		"/>
		<polygon class="st0" points="99.71,202.98 12.81,187.82 11.63,199.72 99.57,204.39 		"/>
		<polygon class="st0" points="336.81,219.78 424.78,213.28 424.77,225.24 336.81,221.2 		"/>
		<polygon class="st0" points="97.87,219.78 9.9,213.28 9.9,225.24 97.87,221.2 		"/>
	</g>
</g>
<g id="Text">
	<path class="st1" d="M96.02,221.01c7.53,1.3,48.33-0.1,49.62,3.08c1.29,3.17-47.37,1.67-47.77,6.57
		c-0.46,5.69,68.34,3.89,70.27,7.54s-67.97-1.17-66.31,4.12c2.91,9.26,72.1,10.47,73.38,12.29c1.29,1.82-66.76-0.27-64.24,4.38
		c3.75,6.91,79.02,8.69,80.95,11.53c1.93,2.84-74.62-0.47-70.7,4.19c5.16,6.13,90.34,6.7,91.39,9.73
		c1.57,4.53-69.19,2.19-66.15,6.38c4.9,6.77,83.67,5.51,84.31,8.37s-53.34,2.98-55.96,6.56c-2.01,2.73,45.68,3.77,45.68,5.59
		c0,1.82-26.09,3.12-26.1,5.33c-0.01,2.2,24.33,2.86,29.74,2.43c4.99-0.4,26.86-2.65,38.61-6.12c2.2-0.65,1.81-3.89-0.48-4.01
		c-7.09-0.38-16.41-1.32-16.14-3.66c0.23-2.09,34.34-3.65,38.25-8.6c3.91-4.95-41.27-0.65-43.52-4.81s64.79-3.23,65.81-8.7
		c1.02-5.47-56.89-5.15-56.89-9.58c0-4.43,71.38-1.06,71.38-5.23s-77.33-3.78-78.62-7.43c-1.29-3.65,86.3-1.41,87.91-6.88
		c1.61-5.47-73.91-2.13-74.56-8.07c-0.6-5.48,80.88-2.16,82.87-7.63c2-5.47-36.28-1.49-37.88-6.18c-1.61-4.69,39.51-6.3,40.15-8.12
		s0.64-3.08,0.64-3.08H96.02z"/>
	<g class="st2">
		<line class="st3" x1="96" y1="223.83" x2="341.67" y2="223.71"/>
		<g class="st4">
			<line class="st5" x1="96.06" y1="228.25" x2="341.54" y2="228"/>
			<line class="st5" x1="96.24" y1="232.73" x2="341.3" y2="232.38"/>
			<line class="st5" x1="96.53" y1="237.28" x2="340.94" y2="236.76"/>
			<line class="st6" x1="96.95" y1="241.66" x2="340.57" y2="241.15"/>
			<line class="st6" x1="97.51" y1="246.04" x2="339.73" y2="245.53"/>
			<line class="st6" x1="98.21" y1="250.42" x2="339.02" y2="249.92"/>
			<line class="st6" x1="99.05" y1="254.81" x2="338.08" y2="254.3"/>
			<line class="st7" x1="100.06" y1="259.19" x2="336.98" y2="258.69"/>
			<line class="st7" x1="101.23" y1="263.57" x2="335.7" y2="263.07"/>
			<line class="st7" x1="102.59" y1="267.95" x2="334.23" y2="267.46"/>
			<line class="st7" x1="104.19" y1="272.46" x2="332.56" y2="271.85"/>
			<line class="st7" x1="105.91" y1="276.71" x2="330.67" y2="276.23"/>
			<line class="st8" x1="107.9" y1="281.09" x2="328.56" y2="280.62"/>
			<line class="st8" x1="110.14" y1="285.46" x2="326.64" y2="285.01"/>
			<line class="st8" x1="112.65" y1="289.84" x2="323.53" y2="289.4"/>
			<line class="st8" x1="115.48" y1="294.23" x2="320.58" y2="293.79"/>
			<line class="st8" x1="118.64" y1="298.6" x2="317.28" y2="298.18"/>
			<line class="st8" x1="122.48" y1="303.33" x2="313.57" y2="302.61"/>
			<line class="st9" x1="126.15" y1="307.35" x2="309.5" y2="306.96"/>
			<line class="st9" x1="130.64" y1="311.72" x2="304.9" y2="311.35"/>
			<line class="st9" x1="135.72" y1="316.1" x2="299.1" y2="315.75"/>
			<line class="st9" x1="140.93" y1="320.04" x2="293.96" y2="320.04"/>
			<line class="st9" x1="147.59" y1="324.42" x2="287.21" y2="324.42"/>
			<line class="st10" x1="156.67" y1="329.21" x2="279.04" y2="328.95"/>
			<line class="st10" x1="166.05" y1="333.59" x2="269.38" y2="333.36"/>
			<line class="st10" x1="177.52" y1="337.57" x2="257.6" y2="337.57"/>
			<line class="st11" x1="199.46" y1="342.26" x2="237.46" y2="342.18"/>
		</g>
	</g>
	<path class="st10" d="M346.15,346.34"/>
	<g>
		<g>
			<path class="st12" d="M127.72,189.74c0.14-0.37,0.28-0.74,0.42-1.11c9.72,0.64,15.77-0.88,20.33-6.06
				c3.19-3.55,3.12-5.8,1.48-7.51c-1.88-1.81-3.3-1.86-12.47,4.62c-7.37,5.54-11.74,8.24-17.31,4.8
				c-6.07-3.61-4.48-11.49,0.69-17.91c4.35-5.41,8.81-7.19,11.58-7.57c0.53-2.09,1.12-4.18,1.77-6.26c0.25-0.23,0.5-0.45,0.75-0.68
				c2.59,2.89,5.17,5.77,7.76,8.66c-0.23,0.29-0.46,0.58-0.69,0.87c-6.76-2.03-13.6-1.91-19.66,5.49c-3.55,4.43-3.99,7.51-2.12,8.8
				c2.17,1.63,4.45-0.68,13.46-7.13c8.93-5.99,13.22-5.85,17.03-1.48c4.27,5.07,4.22,10.43-0.86,16.02
				c-3.63,4.07-7.4,5.74-10.2,6.34c0.02,2,0.1,3.99,0.24,5.96c-0.25,0.39-0.49,0.79-0.74,1.18
				C135.37,194.42,131.54,192.08,127.72,189.74z"/>
			<path class="st12" d="M162.21,168.79c1.22-0.9,2.47-1.77,3.72-2.61c-5.18-7.79-10.36-15.58-15.54-23.38
				c-1.63,1.08-3.24,2.21-4.82,3.38c-0.3-0.41-0.61-0.82-0.91-1.23c7.21-5.32,14.89-9.76,22.89-13.33c0.21,0.47,0.42,0.93,0.63,1.4
				c-1.41,0.63-2.81,1.28-4.2,1.97c1.95,3.94,3.9,7.89,5.85,11.83c3.23-1.59,6.52-3.01,9.87-4.26c-1.56-4.11-3.11-8.23-4.67-12.34
				c-1.44,0.54-2.87,1.11-4.29,1.7c-0.2-0.47-0.4-0.94-0.6-1.41c8.06-3.37,16.43-5.86,24.93-7.47c0.1,0.5,0.19,1,0.29,1.5
				c-1.87,0.35-3.73,0.75-5.58,1.19c2.19,9.09,4.38,18.18,6.57,27.27c1.43-0.34,2.87-0.65,4.31-0.92c0.09,0.49,0.19,0.97,0.28,1.46
				c-6.39,1.21-12.67,3.08-18.72,5.61c-0.19-0.46-0.39-0.91-0.58-1.37c1.1-0.46,2.2-0.9,3.31-1.31c-1.57-4.16-3.14-8.31-4.72-12.47
				c-3.3,1.24-6.55,2.64-9.73,4.2c1.97,3.98,3.94,7.97,5.91,11.95c1.07-0.53,2.15-1.03,3.24-1.52c0.2,0.45,0.41,0.9,0.61,1.36
				c-6.01,2.67-11.77,6.01-17.19,10.01C162.8,169.59,162.51,169.19,162.21,168.79z"/>
			<path class="st12" d="M206.94,151.1c1.46-0.18,2.92-0.32,4.38-0.43c-0.72-9.32-1.44-18.63-2.16-27.95
				c-1.89,0.14-3.78,0.33-5.67,0.56c-0.06-0.51-0.13-1.01-0.19-1.52c9.36-1.14,18.82-1.23,28.2-0.27c-0.05,0.51-0.11,1.01-0.16,1.52
				c-1.91-0.19-3.82-0.35-5.74-0.45c-0.53,9.33-1.06,18.66-1.59,27.99c1.48,0.08,2.96,0.2,4.43,0.35c-0.05,0.49-0.1,0.99-0.15,1.48
				c-7.04-0.72-14.15-0.65-21.17,0.21C207.06,152.08,207,151.59,206.94,151.1z"/>
			<path class="st12" d="M234.36,151.63c0.24,0.04,0.48,0.08,0.72,0.12c2.62,0.46,3.78-0.09,4.38-2.87
				c1.71-7.94,3.42-15.87,5.13-23.81c-1.86-0.4-3.73-0.75-5.61-1.06c0.08-0.5,0.17-1.01,0.25-1.51c6.49,1.07,12.91,2.65,19.19,4.74
				c3.79,9.55,6.24,19.22,7.39,28.71c2.86-5.43,5.73-10.87,8.59-16.3c1.33-2.5,0.53-3.88-2.63-5.39c-0.33-0.15-0.65-0.31-0.98-0.46
				c0.22-0.46,0.43-0.93,0.65-1.39c4.33,2.01,8.57,4.29,12.69,6.82c-0.27,0.43-0.54,0.87-0.8,1.3c-0.33-0.2-0.66-0.4-0.99-0.6
				c-3.03-1.81-4.56-1.68-5.92,0.8c-4.17,7.56-8.35,15.12-12.52,22.68c-3.04-1.67-6.15-3.16-9.32-4.47
				c-1.61-9.42-4.58-18.94-8.93-28.25c-1.46,6.19-2.92,12.39-4.38,18.58c-0.64,2.77,0.17,3.76,2.74,4.45
				c0.23,0.06,0.47,0.13,0.7,0.19c-0.14,0.49-0.28,0.98-0.42,1.47c-3.36-0.95-6.77-1.7-10.2-2.27
				C234.19,152.64,234.27,152.13,234.36,151.63z"/>
			<path class="st12" d="M273.47,167.65c1.24,0.87,2.46,1.78,3.66,2.72c5.75-7.38,11.5-14.76,17.25-22.14
				c-1.56-1.22-3.14-2.4-4.74-3.53c0.29-0.42,0.59-0.83,0.88-1.25c12.92,9.13,24.41,21.01,33.61,35.66
				c-3.29,2.07-6.58,4.14-9.87,6.2c-0.17-0.28-0.35-0.55-0.52-0.82c0.83-5,1.36-10.13,1.56-15.37c-2.81-3.59-5.77-6.97-8.87-10.14
				c-3.16,3.11-6.31,6.21-9.47,9.32c0.31,0.31,0.61,0.63,0.91,0.95c4.93,5.28,7.64,5.02,11.24,3.02c0.3,0.37,0.59,0.74,0.88,1.12
				c-3.85,3.04-7.71,6.08-11.56,9.11c-0.26-0.33-0.51-0.65-0.77-0.98c2.64-2.89,4.08-6-0.83-11.28c-0.3-0.31-0.6-0.62-0.9-0.93
				c-3.18,3.13-6.35,6.26-9.53,9.38c2.39,2.45,4.68,5.06,6.84,7.83c5.47,0.05,11.11,0.62,16.86,1.76c0.16,0.26,0.33,0.53,0.49,0.79
				c-4.07,2.49-8.13,4.98-12.2,7.48c-7-11.42-15.83-20.65-25.8-27.69C272.9,168.46,273.18,168.05,273.47,167.65z"/>
		</g>
	</g>
	<g>
		<path class="st12" d="M172.59,208.56c7.77,0,10.22-5.36,10.87-10.62h0.94c-0.58,5.8-3.31,11.84-11.81,11.84
			c-7.92,0-13.64-5.76-13.64-13.21c0-7.45,5.8-13.21,13.32-13.21c4.18,0,6.62,2.16,7.92,3.64l3.42-3.46h0.76v11.34l-0.79,0.11
			c-2.02-4.97-5.11-10.4-11.05-10.4c-2.38,0-3.2,0.76-3.24,3.02c-0.04,1.8-0.07,6.51-0.07,8.96c0,2.45,0.04,7.16,0.07,9.29
			C169.32,207.77,170.04,208.56,172.59,208.56z"/>
		<path class="st12" d="M186.35,207.88c3.24-0.79,4.36-1.98,5.83-5.79l6.84-17.96h5.22l8.71,23.69h3.1v1.19h-16.38v-1.19h3.96
			l-1.76-5.4h-8.5c-0.61,1.91-0.68,2.45-0.68,2.99c0,1.62,1.22,2.38,2.95,2.48v1.12h-9.29V207.88z M193.76,201.22h7.7l-3.64-10.94
			L193.76,201.22z"/>
		<path class="st12" d="M219.75,207.81h3.28v-22.43h-3.28v-1.22h26.06v10.04h-0.54l-6.23-8.82h-7.2v10.58h1.04
			c4.36,0,5.22-1.98,5.62-5.18h0.79v11.77h-0.79c-0.4-3.13-1.26-5.44-5.62-5.44h-1.04v10.69h3.53v1.19h-15.62V207.81z"/>
		<path class="st12" d="M250.86,207.81h3.28v-22.43h-3.28v-1.22h26.06v9.32h-0.54l-6.26-8.14h-7.16v10.62h0.79
			c4.36,0,5.22-1.98,5.62-5.18h0.79v11.77h-0.79c-0.4-3.13-1.26-5.44-5.62-5.44h-0.79v10.69h7.16l6.98-10.26h0.54v11.45h-26.78
			V207.81z"/>
	</g>
</g>
</svg>
